%TF.GenerationSoftware,KiCad,Pcbnew,(6.0.7)*%
%TF.CreationDate,2022-09-09T14:18:56-05:00*%
%TF.ProjectId,Voron Fan PCB,566f726f-6e20-4466-916e-205043422e6b,rev?*%
%TF.SameCoordinates,Original*%
%TF.FileFunction,Copper,L1,Top*%
%TF.FilePolarity,Positive*%
%FSLAX46Y46*%
G04 Gerber Fmt 4.6, Leading zero omitted, Abs format (unit mm)*
G04 Created by KiCad (PCBNEW (6.0.7)) date 2022-09-09 14:18:56*
%MOMM*%
%LPD*%
G01*
G04 APERTURE LIST*
G04 Aperture macros list*
%AMRoundRect*
0 Rectangle with rounded corners*
0 $1 Rounding radius*
0 $2 $3 $4 $5 $6 $7 $8 $9 X,Y pos of 4 corners*
0 Add a 4 corners polygon primitive as box body*
4,1,4,$2,$3,$4,$5,$6,$7,$8,$9,$2,$3,0*
0 Add four circle primitives for the rounded corners*
1,1,$1+$1,$2,$3*
1,1,$1+$1,$4,$5*
1,1,$1+$1,$6,$7*
1,1,$1+$1,$8,$9*
0 Add four rect primitives between the rounded corners*
20,1,$1+$1,$2,$3,$4,$5,0*
20,1,$1+$1,$4,$5,$6,$7,0*
20,1,$1+$1,$6,$7,$8,$9,0*
20,1,$1+$1,$8,$9,$2,$3,0*%
G04 Aperture macros list end*
%TA.AperFunction,ComponentPad*%
%ADD10RoundRect,0.250000X0.750000X-0.600000X0.750000X0.600000X-0.750000X0.600000X-0.750000X-0.600000X0*%
%TD*%
%TA.AperFunction,ComponentPad*%
%ADD11O,2.000000X1.700000*%
%TD*%
%TA.AperFunction,ComponentPad*%
%ADD12RoundRect,0.250000X-0.750000X0.600000X-0.750000X-0.600000X0.750000X-0.600000X0.750000X0.600000X0*%
%TD*%
%TA.AperFunction,Conductor*%
%ADD13C,0.406000*%
%TD*%
G04 APERTURE END LIST*
D10*
%TO.P,Board,1,Pin_1*%
%TO.N,Net-(J1-Pad1)*%
X90000000Y-58500000D03*
D11*
%TO.P,Board,2,Pin_2*%
%TO.N,Net-(J1-Pad2)*%
X90000000Y-56000000D03*
%TD*%
D12*
%TO.P,Fan 1,1,Pin_1*%
%TO.N,Net-(J1-Pad1)*%
X80000000Y-62500000D03*
D11*
%TO.P,Fan 1,2,Pin_2*%
%TO.N,Net-(J1-Pad2)*%
X80000000Y-65000000D03*
%TD*%
D12*
%TO.P,Fan 2,1,Pin_1*%
%TO.N,Net-(J1-Pad1)*%
X80000000Y-50000000D03*
D11*
%TO.P,Fan 2,2,Pin_2*%
%TO.N,Net-(J1-Pad2)*%
X80000000Y-52500000D03*
%TD*%
D13*
%TO.N,Net-(J1-Pad1)*%
X90000000Y-58500000D02*
X80000000Y-58500000D01*
X77500000Y-56000000D02*
X80000000Y-58500000D01*
X77500000Y-50000000D02*
X77500000Y-56000000D01*
X80000000Y-50000000D02*
X77500000Y-50000000D01*
X80000000Y-58500000D02*
X80000000Y-62500000D01*
%TO.N,Net-(J1-Pad2)*%
X86750000Y-56000000D02*
X90000000Y-56000000D01*
X92500000Y-56000000D02*
X90000000Y-56000000D01*
X92500000Y-62000000D02*
X92500000Y-56000000D01*
X89500000Y-65000000D02*
X92500000Y-62000000D01*
X83250000Y-52500000D02*
X86750000Y-56000000D01*
X80000000Y-52500000D02*
X83250000Y-52500000D01*
X80000000Y-65000000D02*
X89500000Y-65000000D01*
%TD*%
%TA.AperFunction,NonConductor*%
G36*
X78464903Y-50731502D02*
G01*
X78511396Y-50785158D01*
X78516303Y-50797616D01*
X78558450Y-50923946D01*
X78651522Y-51074348D01*
X78776697Y-51199305D01*
X78922340Y-51289081D01*
X78969832Y-51341852D01*
X78981256Y-51411924D01*
X78952982Y-51477048D01*
X78943195Y-51487510D01*
X78828865Y-51596576D01*
X78691246Y-51781542D01*
X78688830Y-51786293D01*
X78688828Y-51786297D01*
X78648514Y-51865590D01*
X78586760Y-51987051D01*
X78585178Y-51992145D01*
X78585177Y-51992148D01*
X78578273Y-52014384D01*
X78518393Y-52207227D01*
X78488102Y-52435774D01*
X78496751Y-52666158D01*
X78544093Y-52891791D01*
X78628776Y-53106221D01*
X78631543Y-53110780D01*
X78631544Y-53110783D01*
X78715056Y-53248405D01*
X78748377Y-53303317D01*
X78751874Y-53307347D01*
X78838438Y-53407103D01*
X78899477Y-53477445D01*
X78903608Y-53480832D01*
X79073627Y-53620240D01*
X79073633Y-53620244D01*
X79077755Y-53623624D01*
X79082391Y-53626263D01*
X79082394Y-53626265D01*
X79191422Y-53688327D01*
X79278114Y-53737675D01*
X79494825Y-53816337D01*
X79500074Y-53817286D01*
X79500077Y-53817287D01*
X79717608Y-53856623D01*
X79717615Y-53856624D01*
X79721692Y-53857361D01*
X79739414Y-53858197D01*
X79744356Y-53858430D01*
X79744363Y-53858430D01*
X79745844Y-53858500D01*
X80207890Y-53858500D01*
X80274809Y-53852822D01*
X80374409Y-53844371D01*
X80374413Y-53844370D01*
X80379720Y-53843920D01*
X80384875Y-53842582D01*
X80384881Y-53842581D01*
X80597703Y-53787343D01*
X80597707Y-53787342D01*
X80602872Y-53786001D01*
X80607738Y-53783809D01*
X80607741Y-53783808D01*
X80808202Y-53693507D01*
X80813075Y-53691312D01*
X81004319Y-53562559D01*
X81171135Y-53403424D01*
X81276144Y-53262287D01*
X81332854Y-53219574D01*
X81377233Y-53211500D01*
X82903097Y-53211500D01*
X82971218Y-53231502D01*
X82992192Y-53248405D01*
X86226358Y-56482571D01*
X86232212Y-56488836D01*
X86270417Y-56532631D01*
X86322917Y-56569528D01*
X86328202Y-56573454D01*
X86372738Y-56608374D01*
X86378716Y-56613061D01*
X86385639Y-56616187D01*
X86387672Y-56617418D01*
X86403007Y-56626165D01*
X86405097Y-56627286D01*
X86411311Y-56631653D01*
X86418388Y-56634412D01*
X86471109Y-56654967D01*
X86477181Y-56657519D01*
X86535669Y-56683928D01*
X86543141Y-56685313D01*
X86545436Y-56686032D01*
X86562375Y-56690858D01*
X86564682Y-56691450D01*
X86571757Y-56694209D01*
X86579286Y-56695200D01*
X86579289Y-56695201D01*
X86623273Y-56700991D01*
X86635403Y-56702588D01*
X86641900Y-56703616D01*
X86704996Y-56715311D01*
X86712576Y-56714874D01*
X86712577Y-56714874D01*
X86767467Y-56711709D01*
X86774720Y-56711500D01*
X88621736Y-56711500D01*
X88689857Y-56731502D01*
X88729454Y-56772134D01*
X88745606Y-56798751D01*
X88748377Y-56803317D01*
X88751874Y-56807347D01*
X88844913Y-56914565D01*
X88899477Y-56977445D01*
X88935120Y-57006670D01*
X88975114Y-57065329D01*
X88977046Y-57136299D01*
X88940302Y-57197048D01*
X88921532Y-57211248D01*
X88911507Y-57217452D01*
X88775652Y-57301522D01*
X88650695Y-57426697D01*
X88646855Y-57432927D01*
X88646854Y-57432928D01*
X88570298Y-57557125D01*
X88557885Y-57577262D01*
X88526877Y-57670748D01*
X88516456Y-57702167D01*
X88476025Y-57760527D01*
X88410461Y-57787764D01*
X88396863Y-57788500D01*
X80346903Y-57788500D01*
X80278782Y-57768498D01*
X80257808Y-57751595D01*
X78248405Y-55742192D01*
X78214379Y-55679880D01*
X78211500Y-55653097D01*
X78211500Y-50837500D01*
X78231502Y-50769379D01*
X78285158Y-50722886D01*
X78337500Y-50711500D01*
X78396782Y-50711500D01*
X78464903Y-50731502D01*
G37*
%TD.AperFunction*%
%TA.AperFunction,NonConductor*%
G36*
X91730621Y-56731502D02*
G01*
X91777114Y-56785158D01*
X91788500Y-56837500D01*
X91788500Y-61653097D01*
X91768498Y-61721218D01*
X91751595Y-61742192D01*
X89242192Y-64251595D01*
X89179880Y-64285621D01*
X89153097Y-64288500D01*
X81378264Y-64288500D01*
X81310143Y-64268498D01*
X81270546Y-64227866D01*
X81254394Y-64201249D01*
X81254392Y-64201247D01*
X81251623Y-64196683D01*
X81164755Y-64096576D01*
X81104023Y-64026588D01*
X81104021Y-64026586D01*
X81100523Y-64022555D01*
X81064880Y-63993330D01*
X81024886Y-63934671D01*
X81022954Y-63863701D01*
X81059698Y-63802952D01*
X81078468Y-63788752D01*
X81218120Y-63702332D01*
X81224348Y-63698478D01*
X81349305Y-63573303D01*
X81442115Y-63422738D01*
X81497797Y-63254861D01*
X81508500Y-63150400D01*
X81508500Y-61849600D01*
X81497526Y-61743834D01*
X81441550Y-61576054D01*
X81348478Y-61425652D01*
X81223303Y-61300695D01*
X81217072Y-61296854D01*
X81078968Y-61211725D01*
X81078966Y-61211724D01*
X81072738Y-61207885D01*
X80912254Y-61154655D01*
X80911389Y-61154368D01*
X80911387Y-61154368D01*
X80904861Y-61152203D01*
X80898023Y-61151502D01*
X80898021Y-61151502D01*
X80824657Y-61143985D01*
X80758930Y-61117143D01*
X80718148Y-61059028D01*
X80711500Y-61018641D01*
X80711500Y-59337500D01*
X80731502Y-59269379D01*
X80785158Y-59222886D01*
X80837500Y-59211500D01*
X88396782Y-59211500D01*
X88464903Y-59231502D01*
X88511396Y-59285158D01*
X88516303Y-59297616D01*
X88558450Y-59423946D01*
X88651522Y-59574348D01*
X88776697Y-59699305D01*
X88782927Y-59703145D01*
X88782928Y-59703146D01*
X88920090Y-59787694D01*
X88927262Y-59792115D01*
X89007005Y-59818564D01*
X89088611Y-59845632D01*
X89088613Y-59845632D01*
X89095139Y-59847797D01*
X89101975Y-59848497D01*
X89101978Y-59848498D01*
X89145031Y-59852909D01*
X89199600Y-59858500D01*
X90800400Y-59858500D01*
X90803646Y-59858163D01*
X90803650Y-59858163D01*
X90899308Y-59848238D01*
X90899312Y-59848237D01*
X90906166Y-59847526D01*
X90912702Y-59845345D01*
X90912704Y-59845345D01*
X91044806Y-59801272D01*
X91073946Y-59791550D01*
X91224348Y-59698478D01*
X91349305Y-59573303D01*
X91356697Y-59561311D01*
X91438275Y-59428968D01*
X91438276Y-59428966D01*
X91442115Y-59422738D01*
X91497797Y-59254861D01*
X91500191Y-59231502D01*
X91508172Y-59153598D01*
X91508500Y-59150400D01*
X91508500Y-57849600D01*
X91506530Y-57830613D01*
X91498238Y-57750692D01*
X91498237Y-57750688D01*
X91497526Y-57743834D01*
X91441550Y-57576054D01*
X91348478Y-57425652D01*
X91223303Y-57300695D01*
X91077660Y-57210919D01*
X91030168Y-57158148D01*
X91018744Y-57088076D01*
X91047018Y-57022952D01*
X91056805Y-57012490D01*
X91103385Y-56968054D01*
X91171135Y-56903424D01*
X91276144Y-56762287D01*
X91332854Y-56719574D01*
X91377233Y-56711500D01*
X91662500Y-56711500D01*
X91730621Y-56731502D01*
G37*
%TD.AperFunction*%
%TA.AperFunction,NonConductor*%
G36*
X99805304Y-45528502D02*
G01*
X99826278Y-45545405D01*
X104454595Y-50173723D01*
X104488621Y-50236035D01*
X104491500Y-50262818D01*
X104491500Y-64737183D01*
X104471498Y-64805304D01*
X104454595Y-64826278D01*
X99826278Y-69454595D01*
X99763966Y-69488621D01*
X99737183Y-69491500D01*
X70262817Y-69491500D01*
X70194696Y-69471498D01*
X70173722Y-69454595D01*
X65545405Y-64826278D01*
X65511379Y-64763966D01*
X65508500Y-64737183D01*
X65508500Y-57477869D01*
X67886689Y-57477869D01*
X67903238Y-57764883D01*
X67904063Y-57769088D01*
X67904064Y-57769096D01*
X67936010Y-57931921D01*
X67958586Y-58046995D01*
X67959973Y-58051045D01*
X67959974Y-58051050D01*
X68035557Y-58271807D01*
X68051710Y-58318986D01*
X68053637Y-58322817D01*
X68141310Y-58497135D01*
X68180885Y-58575822D01*
X68222166Y-58635886D01*
X68331325Y-58794713D01*
X68343721Y-58812750D01*
X68537206Y-59025388D01*
X68540501Y-59028143D01*
X68540502Y-59028144D01*
X68591258Y-59070582D01*
X68757759Y-59209798D01*
X69001298Y-59362571D01*
X69263318Y-59480877D01*
X69267437Y-59482097D01*
X69534857Y-59561311D01*
X69534862Y-59561312D01*
X69538970Y-59562529D01*
X69543204Y-59563177D01*
X69543209Y-59563178D01*
X69791811Y-59601219D01*
X69823153Y-59606015D01*
X69969485Y-59608314D01*
X70106317Y-59610464D01*
X70106323Y-59610464D01*
X70110608Y-59610531D01*
X70114860Y-59610016D01*
X70114868Y-59610016D01*
X70391756Y-59576508D01*
X70391761Y-59576507D01*
X70396017Y-59575992D01*
X70674097Y-59503039D01*
X70939704Y-59393021D01*
X71173903Y-59256166D01*
X71184219Y-59250138D01*
X71184220Y-59250137D01*
X71187922Y-59247974D01*
X71414159Y-59070582D01*
X71455285Y-59028144D01*
X71611244Y-58867206D01*
X71614227Y-58864128D01*
X71616760Y-58860680D01*
X71616764Y-58860675D01*
X71781887Y-58635886D01*
X71784425Y-58632431D01*
X71921604Y-58379779D01*
X72023225Y-58110848D01*
X72079680Y-57864350D01*
X72086449Y-57834797D01*
X72086450Y-57834793D01*
X72087407Y-57830613D01*
X72091166Y-57788500D01*
X72112743Y-57546726D01*
X72112743Y-57546724D01*
X72112963Y-57544260D01*
X72113427Y-57500000D01*
X72111479Y-57471428D01*
X72094165Y-57217452D01*
X72094164Y-57217446D01*
X72093873Y-57213175D01*
X72089336Y-57191264D01*
X72036443Y-56935855D01*
X72035574Y-56931658D01*
X71939607Y-56660657D01*
X71807750Y-56405188D01*
X71794488Y-56386317D01*
X71725095Y-56287582D01*
X71642441Y-56169977D01*
X71519346Y-56037511D01*
X76784257Y-56037511D01*
X76785562Y-56044987D01*
X76785562Y-56044990D01*
X76795291Y-56100734D01*
X76796254Y-56107260D01*
X76803963Y-56170963D01*
X76806648Y-56178070D01*
X76807216Y-56180381D01*
X76811878Y-56197422D01*
X76812560Y-56199682D01*
X76813865Y-56207157D01*
X76839670Y-56265944D01*
X76842151Y-56272024D01*
X76864835Y-56332056D01*
X76869140Y-56338319D01*
X76870270Y-56340481D01*
X76878801Y-56355809D01*
X76880030Y-56357887D01*
X76883083Y-56364843D01*
X76887706Y-56370868D01*
X76887711Y-56370876D01*
X76922160Y-56415769D01*
X76926024Y-56421086D01*
X76962376Y-56473979D01*
X76968046Y-56479031D01*
X76968047Y-56479032D01*
X77009106Y-56515614D01*
X77014382Y-56520595D01*
X79251595Y-58757808D01*
X79285621Y-58820120D01*
X79288500Y-58846903D01*
X79288500Y-61018673D01*
X79268498Y-61086794D01*
X79214842Y-61133287D01*
X79175504Y-61144000D01*
X79100692Y-61151762D01*
X79100688Y-61151763D01*
X79093834Y-61152474D01*
X79087298Y-61154655D01*
X79087296Y-61154655D01*
X78955194Y-61198728D01*
X78926054Y-61208450D01*
X78775652Y-61301522D01*
X78650695Y-61426697D01*
X78557885Y-61577262D01*
X78502203Y-61745139D01*
X78491500Y-61849600D01*
X78491500Y-63150400D01*
X78502474Y-63256166D01*
X78558450Y-63423946D01*
X78651522Y-63574348D01*
X78776697Y-63699305D01*
X78922340Y-63789081D01*
X78969832Y-63841852D01*
X78981256Y-63911924D01*
X78952982Y-63977048D01*
X78943195Y-63987510D01*
X78828865Y-64096576D01*
X78691246Y-64281542D01*
X78586760Y-64487051D01*
X78518393Y-64707227D01*
X78517692Y-64712516D01*
X78507506Y-64789373D01*
X78488102Y-64935774D01*
X78496751Y-65166158D01*
X78544093Y-65391791D01*
X78546051Y-65396750D01*
X78546052Y-65396752D01*
X78601686Y-65537624D01*
X78628776Y-65606221D01*
X78631543Y-65610780D01*
X78631544Y-65610783D01*
X78695236Y-65715743D01*
X78748377Y-65803317D01*
X78751874Y-65807347D01*
X78838438Y-65907103D01*
X78899477Y-65977445D01*
X78903608Y-65980832D01*
X79073627Y-66120240D01*
X79073633Y-66120244D01*
X79077755Y-66123624D01*
X79082391Y-66126263D01*
X79082394Y-66126265D01*
X79191422Y-66188327D01*
X79278114Y-66237675D01*
X79494825Y-66316337D01*
X79500074Y-66317286D01*
X79500077Y-66317287D01*
X79717608Y-66356623D01*
X79717615Y-66356624D01*
X79721692Y-66357361D01*
X79739414Y-66358197D01*
X79744356Y-66358430D01*
X79744363Y-66358430D01*
X79745844Y-66358500D01*
X80207890Y-66358500D01*
X80274809Y-66352822D01*
X80374409Y-66344371D01*
X80374413Y-66344370D01*
X80379720Y-66343920D01*
X80384875Y-66342582D01*
X80384881Y-66342581D01*
X80597703Y-66287343D01*
X80597707Y-66287342D01*
X80602872Y-66286001D01*
X80607738Y-66283809D01*
X80607741Y-66283808D01*
X80808202Y-66193507D01*
X80813075Y-66191312D01*
X81004319Y-66062559D01*
X81171135Y-65903424D01*
X81276144Y-65762287D01*
X81332854Y-65719574D01*
X81377233Y-65711500D01*
X89470982Y-65711500D01*
X89479551Y-65711792D01*
X89529935Y-65715227D01*
X89529939Y-65715227D01*
X89537511Y-65715743D01*
X89544987Y-65714438D01*
X89544990Y-65714438D01*
X89600734Y-65704709D01*
X89607260Y-65703746D01*
X89663420Y-65696950D01*
X89663422Y-65696950D01*
X89670963Y-65696037D01*
X89678070Y-65693352D01*
X89680381Y-65692784D01*
X89697422Y-65688122D01*
X89699682Y-65687440D01*
X89707157Y-65686135D01*
X89765944Y-65660330D01*
X89772025Y-65657849D01*
X89824946Y-65637852D01*
X89824948Y-65637851D01*
X89832056Y-65635165D01*
X89838319Y-65630860D01*
X89840481Y-65629730D01*
X89855809Y-65621199D01*
X89857887Y-65619970D01*
X89864843Y-65616917D01*
X89870868Y-65612294D01*
X89870876Y-65612289D01*
X89915769Y-65577840D01*
X89921086Y-65573976D01*
X89973979Y-65537624D01*
X90015615Y-65490893D01*
X90020595Y-65485618D01*
X92982571Y-62523642D01*
X92988836Y-62517788D01*
X93032631Y-62479583D01*
X93069533Y-62427076D01*
X93073466Y-62421782D01*
X93108372Y-62377264D01*
X93113062Y-62371283D01*
X93116189Y-62364358D01*
X93117425Y-62362317D01*
X93126177Y-62346972D01*
X93127288Y-62344900D01*
X93131653Y-62338689D01*
X93154963Y-62278903D01*
X93157519Y-62272822D01*
X93180802Y-62221255D01*
X93183929Y-62214330D01*
X93185314Y-62206860D01*
X93186028Y-62204580D01*
X93190858Y-62187625D01*
X93191450Y-62185320D01*
X93194209Y-62178243D01*
X93202586Y-62114609D01*
X93203617Y-62108101D01*
X93213928Y-62052469D01*
X93215312Y-62045004D01*
X93211709Y-61982516D01*
X93211500Y-61975263D01*
X93211500Y-57477869D01*
X97886689Y-57477869D01*
X97903238Y-57764883D01*
X97904063Y-57769088D01*
X97904064Y-57769096D01*
X97936010Y-57931921D01*
X97958586Y-58046995D01*
X97959973Y-58051045D01*
X97959974Y-58051050D01*
X98035557Y-58271807D01*
X98051710Y-58318986D01*
X98053637Y-58322817D01*
X98141310Y-58497135D01*
X98180885Y-58575822D01*
X98222166Y-58635886D01*
X98331325Y-58794713D01*
X98343721Y-58812750D01*
X98537206Y-59025388D01*
X98540501Y-59028143D01*
X98540502Y-59028144D01*
X98591258Y-59070582D01*
X98757759Y-59209798D01*
X99001298Y-59362571D01*
X99263318Y-59480877D01*
X99267437Y-59482097D01*
X99534857Y-59561311D01*
X99534862Y-59561312D01*
X99538970Y-59562529D01*
X99543204Y-59563177D01*
X99543209Y-59563178D01*
X99791811Y-59601219D01*
X99823153Y-59606015D01*
X99969485Y-59608314D01*
X100106317Y-59610464D01*
X100106323Y-59610464D01*
X100110608Y-59610531D01*
X100114860Y-59610016D01*
X100114868Y-59610016D01*
X100391756Y-59576508D01*
X100391761Y-59576507D01*
X100396017Y-59575992D01*
X100674097Y-59503039D01*
X100939704Y-59393021D01*
X101173903Y-59256166D01*
X101184219Y-59250138D01*
X101184220Y-59250137D01*
X101187922Y-59247974D01*
X101414159Y-59070582D01*
X101455285Y-59028144D01*
X101611244Y-58867206D01*
X101614227Y-58864128D01*
X101616760Y-58860680D01*
X101616764Y-58860675D01*
X101781887Y-58635886D01*
X101784425Y-58632431D01*
X101921604Y-58379779D01*
X102023225Y-58110848D01*
X102079680Y-57864350D01*
X102086449Y-57834797D01*
X102086450Y-57834793D01*
X102087407Y-57830613D01*
X102091166Y-57788500D01*
X102112743Y-57546726D01*
X102112743Y-57546724D01*
X102112963Y-57544260D01*
X102113427Y-57500000D01*
X102111479Y-57471428D01*
X102094165Y-57217452D01*
X102094164Y-57217446D01*
X102093873Y-57213175D01*
X102089336Y-57191264D01*
X102036443Y-56935855D01*
X102035574Y-56931658D01*
X101939607Y-56660657D01*
X101807750Y-56405188D01*
X101794488Y-56386317D01*
X101725095Y-56287582D01*
X101642441Y-56169977D01*
X101512306Y-56029935D01*
X101449661Y-55962521D01*
X101449658Y-55962519D01*
X101446740Y-55959378D01*
X101224268Y-55777287D01*
X100979142Y-55627073D01*
X100961048Y-55619130D01*
X100719830Y-55513243D01*
X100715898Y-55511517D01*
X100689963Y-55504129D01*
X100443534Y-55433932D01*
X100443535Y-55433932D01*
X100439406Y-55432756D01*
X100179897Y-55395823D01*
X100159036Y-55392854D01*
X100159034Y-55392854D01*
X100154784Y-55392249D01*
X100150495Y-55392227D01*
X100150488Y-55392226D01*
X99871583Y-55390765D01*
X99871576Y-55390765D01*
X99867297Y-55390743D01*
X99863053Y-55391302D01*
X99863049Y-55391302D01*
X99737660Y-55407810D01*
X99582266Y-55428268D01*
X99578126Y-55429401D01*
X99578124Y-55429401D01*
X99551732Y-55436621D01*
X99304964Y-55504129D01*
X99301016Y-55505813D01*
X99044476Y-55615237D01*
X99044472Y-55615239D01*
X99040524Y-55616923D01*
X98980082Y-55653097D01*
X98797521Y-55762357D01*
X98797517Y-55762360D01*
X98793839Y-55764561D01*
X98569472Y-55944313D01*
X98371577Y-56152851D01*
X98247914Y-56324946D01*
X98214910Y-56370876D01*
X98203814Y-56386317D01*
X98069288Y-56640392D01*
X97970489Y-56910373D01*
X97909245Y-57191264D01*
X97907851Y-57208978D01*
X97887196Y-57471428D01*
X97887195Y-57471428D01*
X97887196Y-57471430D01*
X97886689Y-57477869D01*
X93211500Y-57477869D01*
X93211500Y-56008777D01*
X93211502Y-56008117D01*
X93211674Y-55975267D01*
X93211976Y-55917622D01*
X93210203Y-55910235D01*
X93203148Y-55880847D01*
X93200580Y-55866574D01*
X93196950Y-55836581D01*
X93196037Y-55829037D01*
X93184225Y-55797776D01*
X93179574Y-55782656D01*
X93173547Y-55757554D01*
X93171774Y-55750169D01*
X93154432Y-55716568D01*
X93148533Y-55703320D01*
X93137851Y-55675052D01*
X93135165Y-55667944D01*
X93116234Y-55640400D01*
X93108120Y-55626843D01*
X93092790Y-55597140D01*
X93067926Y-55568637D01*
X93059043Y-55557186D01*
X93037624Y-55526021D01*
X93031955Y-55520970D01*
X93012673Y-55503790D01*
X93001545Y-55492544D01*
X92984579Y-55473096D01*
X92979583Y-55467369D01*
X92948639Y-55445621D01*
X92937285Y-55436621D01*
X92914718Y-55416515D01*
X92914716Y-55416513D01*
X92909045Y-55411461D01*
X92879511Y-55395823D01*
X92866023Y-55387557D01*
X92844907Y-55372717D01*
X92838689Y-55368347D01*
X92831608Y-55365586D01*
X92831604Y-55365584D01*
X92803461Y-55354611D01*
X92790274Y-55348574D01*
X92763565Y-55334433D01*
X92763563Y-55334432D01*
X92756852Y-55330879D01*
X92749490Y-55329030D01*
X92749488Y-55329029D01*
X92724450Y-55322740D01*
X92709375Y-55317929D01*
X92678243Y-55305791D01*
X92640744Y-55300854D01*
X92626498Y-55298136D01*
X92597195Y-55290776D01*
X92597196Y-55290776D01*
X92589830Y-55288926D01*
X92582238Y-55288886D01*
X92582237Y-55288886D01*
X92574281Y-55288844D01*
X92549542Y-55288714D01*
X92548167Y-55288666D01*
X92546904Y-55288500D01*
X92508777Y-55288500D01*
X92508117Y-55288498D01*
X92422045Y-55288047D01*
X92422042Y-55288047D01*
X92417622Y-55288024D01*
X92416099Y-55288390D01*
X92414184Y-55288500D01*
X91378264Y-55288500D01*
X91310143Y-55268498D01*
X91270546Y-55227866D01*
X91254394Y-55201249D01*
X91254392Y-55201247D01*
X91251623Y-55196683D01*
X91164755Y-55096576D01*
X91104023Y-55026588D01*
X91104021Y-55026586D01*
X91100523Y-55022555D01*
X91058970Y-54988484D01*
X90926373Y-54879760D01*
X90926367Y-54879756D01*
X90922245Y-54876376D01*
X90917609Y-54873737D01*
X90917606Y-54873735D01*
X90726529Y-54764968D01*
X90721886Y-54762325D01*
X90505175Y-54683663D01*
X90499926Y-54682714D01*
X90499923Y-54682713D01*
X90282392Y-54643377D01*
X90282385Y-54643376D01*
X90278308Y-54642639D01*
X90260586Y-54641803D01*
X90255644Y-54641570D01*
X90255637Y-54641570D01*
X90254156Y-54641500D01*
X89792110Y-54641500D01*
X89725191Y-54647178D01*
X89625591Y-54655629D01*
X89625587Y-54655630D01*
X89620280Y-54656080D01*
X89615125Y-54657418D01*
X89615119Y-54657419D01*
X89402297Y-54712657D01*
X89402293Y-54712658D01*
X89397128Y-54713999D01*
X89392262Y-54716191D01*
X89392259Y-54716192D01*
X89283980Y-54764968D01*
X89186925Y-54808688D01*
X88995681Y-54937441D01*
X88828865Y-55096576D01*
X88757382Y-55192653D01*
X88723856Y-55237713D01*
X88667146Y-55280426D01*
X88622767Y-55288500D01*
X87096903Y-55288500D01*
X87028782Y-55268498D01*
X87007808Y-55251595D01*
X83773642Y-52017429D01*
X83767788Y-52011164D01*
X83751199Y-51992148D01*
X83729583Y-51967369D01*
X83677076Y-51930467D01*
X83671782Y-51926534D01*
X83627264Y-51891628D01*
X83621283Y-51886938D01*
X83614358Y-51883811D01*
X83612317Y-51882575D01*
X83596972Y-51873823D01*
X83594900Y-51872712D01*
X83588689Y-51868347D01*
X83528903Y-51845037D01*
X83522822Y-51842481D01*
X83508442Y-51835988D01*
X83464330Y-51816071D01*
X83456860Y-51814686D01*
X83454580Y-51813972D01*
X83437597Y-51809134D01*
X83435314Y-51808548D01*
X83428243Y-51805791D01*
X83420718Y-51804800D01*
X83420717Y-51804800D01*
X83364595Y-51797411D01*
X83358083Y-51796379D01*
X83302473Y-51786073D01*
X83302471Y-51786073D01*
X83295004Y-51784689D01*
X83287423Y-51785126D01*
X83287422Y-51785126D01*
X83232533Y-51788291D01*
X83225280Y-51788500D01*
X81378264Y-51788500D01*
X81310143Y-51768498D01*
X81270546Y-51727866D01*
X81254394Y-51701249D01*
X81254392Y-51701247D01*
X81251623Y-51696683D01*
X81164755Y-51596576D01*
X81104023Y-51526588D01*
X81104021Y-51526586D01*
X81100523Y-51522555D01*
X81064880Y-51493330D01*
X81024886Y-51434671D01*
X81022954Y-51363701D01*
X81059698Y-51302952D01*
X81078468Y-51288752D01*
X81218120Y-51202332D01*
X81224348Y-51198478D01*
X81349305Y-51073303D01*
X81442115Y-50922738D01*
X81497797Y-50754861D01*
X81500191Y-50731502D01*
X81508172Y-50653598D01*
X81508500Y-50650400D01*
X81508500Y-49349600D01*
X81506644Y-49331710D01*
X81498238Y-49250692D01*
X81498237Y-49250688D01*
X81497526Y-49243834D01*
X81441550Y-49076054D01*
X81348478Y-48925652D01*
X81223303Y-48800695D01*
X81217072Y-48796854D01*
X81078968Y-48711725D01*
X81078966Y-48711724D01*
X81072738Y-48707885D01*
X80912254Y-48654655D01*
X80911389Y-48654368D01*
X80911387Y-48654368D01*
X80904861Y-48652203D01*
X80898025Y-48651503D01*
X80898022Y-48651502D01*
X80854969Y-48647091D01*
X80800400Y-48641500D01*
X79199600Y-48641500D01*
X79196354Y-48641837D01*
X79196350Y-48641837D01*
X79100692Y-48651762D01*
X79100688Y-48651763D01*
X79093834Y-48652474D01*
X79087298Y-48654655D01*
X79087296Y-48654655D01*
X78955194Y-48698728D01*
X78926054Y-48708450D01*
X78775652Y-48801522D01*
X78650695Y-48926697D01*
X78557885Y-49077262D01*
X78522373Y-49184328D01*
X78516456Y-49202167D01*
X78476025Y-49260527D01*
X78410461Y-49287764D01*
X78396863Y-49288500D01*
X77508777Y-49288500D01*
X77508117Y-49288498D01*
X77417622Y-49288024D01*
X77410238Y-49289797D01*
X77410235Y-49289797D01*
X77380847Y-49296852D01*
X77366574Y-49299420D01*
X77336581Y-49303050D01*
X77329037Y-49303963D01*
X77321931Y-49306648D01*
X77297776Y-49315775D01*
X77282656Y-49320426D01*
X77250169Y-49328226D01*
X77216571Y-49345567D01*
X77203320Y-49351467D01*
X77167944Y-49364835D01*
X77140400Y-49383766D01*
X77126843Y-49391880D01*
X77097140Y-49407210D01*
X77068642Y-49432071D01*
X77057186Y-49440957D01*
X77026021Y-49462376D01*
X77020970Y-49468045D01*
X77003790Y-49487327D01*
X76992544Y-49498455D01*
X76967369Y-49520417D01*
X76945621Y-49551361D01*
X76936621Y-49562715D01*
X76916515Y-49585282D01*
X76911461Y-49590955D01*
X76902025Y-49608776D01*
X76895823Y-49620489D01*
X76887557Y-49633977D01*
X76868347Y-49661311D01*
X76865586Y-49668392D01*
X76865584Y-49668396D01*
X76854611Y-49696539D01*
X76848574Y-49709726D01*
X76841431Y-49723218D01*
X76830879Y-49743148D01*
X76829030Y-49750510D01*
X76829029Y-49750512D01*
X76822740Y-49775550D01*
X76817929Y-49790624D01*
X76805791Y-49821757D01*
X76804800Y-49829284D01*
X76800854Y-49859255D01*
X76798136Y-49873502D01*
X76788926Y-49910170D01*
X76788886Y-49917762D01*
X76788886Y-49917763D01*
X76788715Y-49950444D01*
X76788666Y-49951833D01*
X76788500Y-49953096D01*
X76788500Y-49991223D01*
X76788498Y-49991883D01*
X76788024Y-50082378D01*
X76788390Y-50083901D01*
X76788500Y-50085816D01*
X76788500Y-55970982D01*
X76788208Y-55979551D01*
X76786216Y-56008777D01*
X76784257Y-56037511D01*
X71519346Y-56037511D01*
X71512306Y-56029935D01*
X71449661Y-55962521D01*
X71449658Y-55962519D01*
X71446740Y-55959378D01*
X71224268Y-55777287D01*
X70979142Y-55627073D01*
X70961048Y-55619130D01*
X70719830Y-55513243D01*
X70715898Y-55511517D01*
X70689963Y-55504129D01*
X70443534Y-55433932D01*
X70443535Y-55433932D01*
X70439406Y-55432756D01*
X70179897Y-55395823D01*
X70159036Y-55392854D01*
X70159034Y-55392854D01*
X70154784Y-55392249D01*
X70150495Y-55392227D01*
X70150488Y-55392226D01*
X69871583Y-55390765D01*
X69871576Y-55390765D01*
X69867297Y-55390743D01*
X69863053Y-55391302D01*
X69863049Y-55391302D01*
X69737660Y-55407810D01*
X69582266Y-55428268D01*
X69578126Y-55429401D01*
X69578124Y-55429401D01*
X69551732Y-55436621D01*
X69304964Y-55504129D01*
X69301016Y-55505813D01*
X69044476Y-55615237D01*
X69044472Y-55615239D01*
X69040524Y-55616923D01*
X68980082Y-55653097D01*
X68797521Y-55762357D01*
X68797517Y-55762360D01*
X68793839Y-55764561D01*
X68569472Y-55944313D01*
X68371577Y-56152851D01*
X68247914Y-56324946D01*
X68214910Y-56370876D01*
X68203814Y-56386317D01*
X68069288Y-56640392D01*
X67970489Y-56910373D01*
X67909245Y-57191264D01*
X67907851Y-57208978D01*
X67887196Y-57471428D01*
X67887195Y-57471428D01*
X67887196Y-57471430D01*
X67886689Y-57477869D01*
X65508500Y-57477869D01*
X65508500Y-50262817D01*
X65528502Y-50194696D01*
X65545405Y-50173722D01*
X70173723Y-45545405D01*
X70236035Y-45511379D01*
X70262818Y-45508500D01*
X99737183Y-45508500D01*
X99805304Y-45528502D01*
G37*
%TD.AperFunction*%
M02*
