%TF.GenerationSoftware,KiCad,Pcbnew,(6.0.7)*%
%TF.CreationDate,2022-09-09T14:19:01-05:00*%
%TF.ProjectId,Voron Fan PCB,566f726f-6e20-4466-916e-205043422e6b,rev?*%
%TF.SameCoordinates,Original*%
%TF.FileFunction,Drillmap*%
%TF.FilePolarity,Positive*%
%FSLAX45Y45*%
G04 Gerber Fmt 4.5, Leading zero omitted, Abs format (unit mm)*
G04 Created by KiCad (PCBNEW (6.0.7)) date 2022-09-09 14:19:01*
%MOMM*%
%LPD*%
G01*
G04 APERTURE LIST*
%ADD10C,0.200000*%
G04 APERTURE END LIST*
D10*
X10500000Y-6500000D02*
X10500000Y-5000000D01*
X7160000Y-5750000D02*
G75*
G03*
X7160000Y-5750000I-160000J0D01*
G01*
X10000000Y-4500000D02*
X10500000Y-5000000D01*
X10000000Y-7000000D02*
X10500000Y-6500000D01*
X10160000Y-5750000D02*
G75*
G03*
X10160000Y-5750000I-160000J0D01*
G01*
X6500000Y-6500000D02*
X7000000Y-7000000D01*
X6500000Y-5000000D02*
X6500000Y-6500000D01*
X7000000Y-4500000D02*
X6500000Y-5000000D01*
X7000000Y-7000000D02*
X10000000Y-7000000D01*
X10000000Y-4500000D02*
X7000000Y-4500000D01*
X6747619Y-7320476D02*
X6747619Y-7120476D01*
X6795238Y-7120476D01*
X6823809Y-7130000D01*
X6842857Y-7149048D01*
X6852381Y-7168095D01*
X6861905Y-7206190D01*
X6861905Y-7234762D01*
X6852381Y-7272857D01*
X6842857Y-7291905D01*
X6823809Y-7310952D01*
X6795238Y-7320476D01*
X6747619Y-7320476D01*
X6947619Y-7320476D02*
X6947619Y-7187143D01*
X6947619Y-7225238D02*
X6957143Y-7206190D01*
X6966667Y-7196667D01*
X6985714Y-7187143D01*
X7004762Y-7187143D01*
X7071428Y-7320476D02*
X7071428Y-7187143D01*
X7071428Y-7120476D02*
X7061905Y-7130000D01*
X7071428Y-7139524D01*
X7080952Y-7130000D01*
X7071428Y-7120476D01*
X7071428Y-7139524D01*
X7195238Y-7320476D02*
X7176190Y-7310952D01*
X7166667Y-7291905D01*
X7166667Y-7120476D01*
X7300000Y-7320476D02*
X7280952Y-7310952D01*
X7271428Y-7291905D01*
X7271428Y-7120476D01*
X7528571Y-7320476D02*
X7528571Y-7120476D01*
X7595238Y-7263333D01*
X7661905Y-7120476D01*
X7661905Y-7320476D01*
X7842857Y-7320476D02*
X7842857Y-7215714D01*
X7833333Y-7196667D01*
X7814286Y-7187143D01*
X7776190Y-7187143D01*
X7757143Y-7196667D01*
X7842857Y-7310952D02*
X7823809Y-7320476D01*
X7776190Y-7320476D01*
X7757143Y-7310952D01*
X7747619Y-7291905D01*
X7747619Y-7272857D01*
X7757143Y-7253809D01*
X7776190Y-7244286D01*
X7823809Y-7244286D01*
X7842857Y-7234762D01*
X7938095Y-7187143D02*
X7938095Y-7387143D01*
X7938095Y-7196667D02*
X7957143Y-7187143D01*
X7995238Y-7187143D01*
X8014286Y-7196667D01*
X8023809Y-7206190D01*
X8033333Y-7225238D01*
X8033333Y-7282381D01*
X8023809Y-7301428D01*
X8014286Y-7310952D01*
X7995238Y-7320476D01*
X7957143Y-7320476D01*
X7938095Y-7310952D01*
X8119048Y-7301428D02*
X8128571Y-7310952D01*
X8119048Y-7320476D01*
X8109524Y-7310952D01*
X8119048Y-7301428D01*
X8119048Y-7320476D01*
X8119048Y-7196667D02*
X8128571Y-7206190D01*
X8119048Y-7215714D01*
X8109524Y-7206190D01*
X8119048Y-7196667D01*
X8119048Y-7215714D01*
M02*
