%TF.GenerationSoftware,KiCad,Pcbnew,(6.0.7)*%
%TF.CreationDate,2022-09-09T14:18:56-05:00*%
%TF.ProjectId,Voron Fan PCB,566f726f-6e20-4466-916e-205043422e6b,rev?*%
%TF.SameCoordinates,Original*%
%TF.FileFunction,Legend,Top*%
%TF.FilePolarity,Positive*%
%FSLAX46Y46*%
G04 Gerber Fmt 4.6, Leading zero omitted, Abs format (unit mm)*
G04 Created by KiCad (PCBNEW (6.0.7)) date 2022-09-09 14:18:56*
%MOMM*%
%LPD*%
G01*
G04 APERTURE LIST*
G04 Aperture macros list*
%AMRoundRect*
0 Rectangle with rounded corners*
0 $1 Rounding radius*
0 $2 $3 $4 $5 $6 $7 $8 $9 X,Y pos of 4 corners*
0 Add a 4 corners polygon primitive as box body*
4,1,4,$2,$3,$4,$5,$6,$7,$8,$9,$2,$3,0*
0 Add four circle primitives for the rounded corners*
1,1,$1+$1,$2,$3*
1,1,$1+$1,$4,$5*
1,1,$1+$1,$6,$7*
1,1,$1+$1,$8,$9*
0 Add four rect primitives between the rounded corners*
20,1,$1+$1,$2,$3,$4,$5,0*
20,1,$1+$1,$4,$5,$6,$7,0*
20,1,$1+$1,$6,$7,$8,$9,0*
20,1,$1+$1,$8,$9,$2,$3,0*%
G04 Aperture macros list end*
%ADD10C,0.150000*%
%ADD11C,0.120000*%
%ADD12RoundRect,0.250000X0.750000X-0.600000X0.750000X0.600000X-0.750000X0.600000X-0.750000X-0.600000X0*%
%ADD13O,2.000000X1.700000*%
%ADD14RoundRect,0.250000X-0.750000X0.600000X-0.750000X-0.600000X0.750000X-0.600000X0.750000X0.600000X0*%
G04 APERTURE END LIST*
D10*
%TO.C,Board*%
X94678571Y-58845238D02*
X94726190Y-58702380D01*
X94773809Y-58654761D01*
X94869047Y-58607142D01*
X95011904Y-58607142D01*
X95107142Y-58654761D01*
X95154761Y-58702380D01*
X95202380Y-58797619D01*
X95202380Y-59178571D01*
X94202380Y-59178571D01*
X94202380Y-58845238D01*
X94250000Y-58750000D01*
X94297619Y-58702380D01*
X94392857Y-58654761D01*
X94488095Y-58654761D01*
X94583333Y-58702380D01*
X94630952Y-58750000D01*
X94678571Y-58845238D01*
X94678571Y-59178571D01*
X95202380Y-58035714D02*
X95154761Y-58130952D01*
X95107142Y-58178571D01*
X95011904Y-58226190D01*
X94726190Y-58226190D01*
X94630952Y-58178571D01*
X94583333Y-58130952D01*
X94535714Y-58035714D01*
X94535714Y-57892857D01*
X94583333Y-57797619D01*
X94630952Y-57750000D01*
X94726190Y-57702380D01*
X95011904Y-57702380D01*
X95107142Y-57750000D01*
X95154761Y-57797619D01*
X95202380Y-57892857D01*
X95202380Y-58035714D01*
X95202380Y-56845238D02*
X94678571Y-56845238D01*
X94583333Y-56892857D01*
X94535714Y-56988095D01*
X94535714Y-57178571D01*
X94583333Y-57273809D01*
X95154761Y-56845238D02*
X95202380Y-56940476D01*
X95202380Y-57178571D01*
X95154761Y-57273809D01*
X95059523Y-57321428D01*
X94964285Y-57321428D01*
X94869047Y-57273809D01*
X94821428Y-57178571D01*
X94821428Y-56940476D01*
X94773809Y-56845238D01*
X95202380Y-56369047D02*
X94535714Y-56369047D01*
X94726190Y-56369047D02*
X94630952Y-56321428D01*
X94583333Y-56273809D01*
X94535714Y-56178571D01*
X94535714Y-56083333D01*
X95202380Y-55321428D02*
X94202380Y-55321428D01*
X95154761Y-55321428D02*
X95202380Y-55416666D01*
X95202380Y-55607142D01*
X95154761Y-55702380D01*
X95107142Y-55750000D01*
X95011904Y-55797619D01*
X94726190Y-55797619D01*
X94630952Y-55750000D01*
X94583333Y-55702380D01*
X94535714Y-55607142D01*
X94535714Y-55416666D01*
X94583333Y-55321428D01*
%TO.C,Fan 1*%
X75178571Y-65369047D02*
X75178571Y-65702380D01*
X75702380Y-65702380D02*
X74702380Y-65702380D01*
X74702380Y-65226190D01*
X75702380Y-64416666D02*
X75178571Y-64416666D01*
X75083333Y-64464285D01*
X75035714Y-64559523D01*
X75035714Y-64750000D01*
X75083333Y-64845238D01*
X75654761Y-64416666D02*
X75702380Y-64511904D01*
X75702380Y-64750000D01*
X75654761Y-64845238D01*
X75559523Y-64892857D01*
X75464285Y-64892857D01*
X75369047Y-64845238D01*
X75321428Y-64750000D01*
X75321428Y-64511904D01*
X75273809Y-64416666D01*
X75035714Y-63940476D02*
X75702380Y-63940476D01*
X75130952Y-63940476D02*
X75083333Y-63892857D01*
X75035714Y-63797619D01*
X75035714Y-63654761D01*
X75083333Y-63559523D01*
X75178571Y-63511904D01*
X75702380Y-63511904D01*
X75702380Y-61750000D02*
X75702380Y-62321428D01*
X75702380Y-62035714D02*
X74702380Y-62035714D01*
X74845238Y-62130952D01*
X74940476Y-62226190D01*
X74988095Y-62321428D01*
%TO.C,Fan 2*%
X75178571Y-53119047D02*
X75178571Y-53452380D01*
X75702380Y-53452380D02*
X74702380Y-53452380D01*
X74702380Y-52976190D01*
X75702380Y-52166666D02*
X75178571Y-52166666D01*
X75083333Y-52214285D01*
X75035714Y-52309523D01*
X75035714Y-52500000D01*
X75083333Y-52595238D01*
X75654761Y-52166666D02*
X75702380Y-52261904D01*
X75702380Y-52500000D01*
X75654761Y-52595238D01*
X75559523Y-52642857D01*
X75464285Y-52642857D01*
X75369047Y-52595238D01*
X75321428Y-52500000D01*
X75321428Y-52261904D01*
X75273809Y-52166666D01*
X75035714Y-51690476D02*
X75702380Y-51690476D01*
X75130952Y-51690476D02*
X75083333Y-51642857D01*
X75035714Y-51547619D01*
X75035714Y-51404761D01*
X75083333Y-51309523D01*
X75178571Y-51261904D01*
X75702380Y-51261904D01*
X74797619Y-50071428D02*
X74750000Y-50023809D01*
X74702380Y-49928571D01*
X74702380Y-49690476D01*
X74750000Y-49595238D01*
X74797619Y-49547619D01*
X74892857Y-49500000D01*
X74988095Y-49500000D01*
X75130952Y-49547619D01*
X75702380Y-50119047D01*
X75702380Y-49500000D01*
D11*
%TO.C,Board*%
X88300000Y-59250000D02*
X87550000Y-59250000D01*
X88300000Y-61050000D02*
X88300000Y-59250000D01*
X88300000Y-55250000D02*
X88300000Y-53450000D01*
X89800000Y-53450000D02*
X89800000Y-54200000D01*
X92750000Y-60300000D02*
X92750000Y-57250000D01*
X92750000Y-54200000D02*
X92750000Y-57250000D01*
X93510000Y-61060000D02*
X93510000Y-53440000D01*
X89800000Y-61050000D02*
X89800000Y-60300000D01*
X87550000Y-61050000D02*
X88300000Y-61050000D01*
X87550000Y-57750000D02*
X88300000Y-57750000D01*
X87550000Y-53450000D02*
X87550000Y-55250000D01*
X88300000Y-57750000D02*
X88300000Y-56750000D01*
X88300000Y-53450000D02*
X87550000Y-53450000D01*
X87550000Y-56750000D02*
X87550000Y-57750000D01*
X87540000Y-53440000D02*
X87540000Y-61060000D01*
X87250000Y-61350000D02*
X88500000Y-61350000D01*
X87550000Y-59250000D02*
X87550000Y-61050000D01*
X87250000Y-60100000D02*
X87250000Y-61350000D01*
X89800000Y-54200000D02*
X92750000Y-54200000D01*
X89800000Y-60300000D02*
X92750000Y-60300000D01*
X93510000Y-53440000D02*
X87540000Y-53440000D01*
X87540000Y-61060000D02*
X93510000Y-61060000D01*
X87550000Y-55250000D02*
X88300000Y-55250000D01*
X88300000Y-56750000D02*
X87550000Y-56750000D01*
%TO.C,Fan 1*%
X80200000Y-59950000D02*
X80200000Y-60700000D01*
X82450000Y-65750000D02*
X81700000Y-65750000D01*
X77250000Y-60700000D02*
X77250000Y-63750000D01*
X80200000Y-66800000D02*
X77250000Y-66800000D01*
X77250000Y-66800000D02*
X77250000Y-63750000D01*
X76490000Y-59940000D02*
X76490000Y-67560000D01*
X82450000Y-63250000D02*
X81700000Y-63250000D01*
X81700000Y-61750000D02*
X82450000Y-61750000D01*
X81700000Y-63250000D02*
X81700000Y-64250000D01*
X81700000Y-64250000D02*
X82450000Y-64250000D01*
X81700000Y-59950000D02*
X81700000Y-61750000D01*
X81700000Y-65750000D02*
X81700000Y-67550000D01*
X76490000Y-67560000D02*
X82460000Y-67560000D01*
X82460000Y-59940000D02*
X76490000Y-59940000D01*
X81700000Y-67550000D02*
X82450000Y-67550000D01*
X82450000Y-64250000D02*
X82450000Y-63250000D01*
X80200000Y-60700000D02*
X77250000Y-60700000D01*
X82460000Y-67560000D02*
X82460000Y-59940000D01*
X82450000Y-61750000D02*
X82450000Y-59950000D01*
X82450000Y-67550000D02*
X82450000Y-65750000D01*
X82750000Y-59650000D02*
X81500000Y-59650000D01*
X82450000Y-59950000D02*
X81700000Y-59950000D01*
X80200000Y-67550000D02*
X80200000Y-66800000D01*
X82750000Y-60900000D02*
X82750000Y-59650000D01*
%TO.C,Fan 2*%
X82460000Y-47440000D02*
X76490000Y-47440000D01*
X77250000Y-54300000D02*
X77250000Y-51250000D01*
X82450000Y-53250000D02*
X81700000Y-53250000D01*
X81700000Y-49250000D02*
X82450000Y-49250000D01*
X81700000Y-50750000D02*
X81700000Y-51750000D01*
X82450000Y-51750000D02*
X82450000Y-50750000D01*
X82750000Y-47150000D02*
X81500000Y-47150000D01*
X77250000Y-48200000D02*
X77250000Y-51250000D01*
X82450000Y-50750000D02*
X81700000Y-50750000D01*
X81700000Y-51750000D02*
X82450000Y-51750000D01*
X80200000Y-54300000D02*
X77250000Y-54300000D01*
X82450000Y-55050000D02*
X82450000Y-53250000D01*
X76490000Y-55060000D02*
X82460000Y-55060000D01*
X82450000Y-47450000D02*
X81700000Y-47450000D01*
X81700000Y-53250000D02*
X81700000Y-55050000D01*
X80200000Y-55050000D02*
X80200000Y-54300000D01*
X81700000Y-55050000D02*
X82450000Y-55050000D01*
X81700000Y-47450000D02*
X81700000Y-49250000D01*
X80200000Y-48200000D02*
X77250000Y-48200000D01*
X82450000Y-49250000D02*
X82450000Y-47450000D01*
X80200000Y-47450000D02*
X80200000Y-48200000D01*
X82750000Y-48400000D02*
X82750000Y-47150000D01*
X82460000Y-55060000D02*
X82460000Y-47440000D01*
X76490000Y-47440000D02*
X76490000Y-55060000D01*
%TD*%
%LPC*%
D12*
%TO.C,Board*%
X90000000Y-58500000D03*
D13*
X90000000Y-56000000D03*
%TD*%
D14*
%TO.C,Fan 1*%
X80000000Y-62500000D03*
D13*
X80000000Y-65000000D03*
%TD*%
D14*
%TO.C,Fan 2*%
X80000000Y-50000000D03*
D13*
X80000000Y-52500000D03*
%TD*%
M02*
