%TF.GenerationSoftware,KiCad,Pcbnew,(6.0.7)*%
%TF.CreationDate,2022-09-09T14:19:01-05:00*%
%TF.ProjectId,Voron Fan PCB,566f726f-6e20-4466-916e-205043422e6b,rev?*%
%TF.SameCoordinates,Original*%
%TF.FileFunction,Drillmap*%
%TF.FilePolarity,Positive*%
%FSLAX45Y45*%
G04 Gerber Fmt 4.5, Leading zero omitted, Abs format (unit mm)*
G04 Created by KiCad (PCBNEW (6.0.7)) date 2022-09-09 14:19:01*
%MOMM*%
%LPD*%
G01*
G04 APERTURE LIST*
%ADD10C,0.200000*%
%ADD11C,0.100000*%
G04 APERTURE END LIST*
D10*
X10500000Y-6500000D02*
X10500000Y-5000000D01*
X7160000Y-5750000D02*
G75*
G03*
X7160000Y-5750000I-160000J0D01*
G01*
X10000000Y-4500000D02*
X10500000Y-5000000D01*
X10000000Y-7000000D02*
X10500000Y-6500000D01*
X10160000Y-5750000D02*
G75*
G03*
X10160000Y-5750000I-160000J0D01*
G01*
X6500000Y-6500000D02*
X7000000Y-7000000D01*
X6500000Y-5000000D02*
X6500000Y-6500000D01*
X7000000Y-4500000D02*
X6500000Y-5000000D01*
X7000000Y-7000000D02*
X10000000Y-7000000D01*
X10000000Y-4500000D02*
X7000000Y-4500000D01*
D11*
X7950000Y-4950000D02*
X8050000Y-5050000D01*
X8050000Y-4950000D02*
X7950000Y-5050000D01*
X7950000Y-5200000D02*
X8050000Y-5300000D01*
X8050000Y-5200000D02*
X7950000Y-5300000D01*
X7950000Y-6200000D02*
X8050000Y-6300000D01*
X8050000Y-6200000D02*
X7950000Y-6300000D01*
X7950000Y-6450000D02*
X8050000Y-6550000D01*
X8050000Y-6450000D02*
X7950000Y-6550000D01*
X8950000Y-5550000D02*
X9050000Y-5650000D01*
X9050000Y-5550000D02*
X8950000Y-5650000D01*
X8950000Y-5800000D02*
X9050000Y-5900000D01*
X9050000Y-5800000D02*
X8950000Y-5900000D01*
D10*
X6747619Y-7320476D02*
X6747619Y-7120476D01*
X6795238Y-7120476D01*
X6823809Y-7130000D01*
X6842857Y-7149048D01*
X6852381Y-7168095D01*
X6861905Y-7206190D01*
X6861905Y-7234762D01*
X6852381Y-7272857D01*
X6842857Y-7291905D01*
X6823809Y-7310952D01*
X6795238Y-7320476D01*
X6747619Y-7320476D01*
X6947619Y-7320476D02*
X6947619Y-7187143D01*
X6947619Y-7225238D02*
X6957143Y-7206190D01*
X6966667Y-7196667D01*
X6985714Y-7187143D01*
X7004762Y-7187143D01*
X7071428Y-7320476D02*
X7071428Y-7187143D01*
X7071428Y-7120476D02*
X7061905Y-7130000D01*
X7071428Y-7139524D01*
X7080952Y-7130000D01*
X7071428Y-7120476D01*
X7071428Y-7139524D01*
X7195238Y-7320476D02*
X7176190Y-7310952D01*
X7166667Y-7291905D01*
X7166667Y-7120476D01*
X7300000Y-7320476D02*
X7280952Y-7310952D01*
X7271428Y-7291905D01*
X7271428Y-7120476D01*
X7528571Y-7320476D02*
X7528571Y-7120476D01*
X7595238Y-7263333D01*
X7661905Y-7120476D01*
X7661905Y-7320476D01*
X7842857Y-7320476D02*
X7842857Y-7215714D01*
X7833333Y-7196667D01*
X7814286Y-7187143D01*
X7776190Y-7187143D01*
X7757143Y-7196667D01*
X7842857Y-7310952D02*
X7823809Y-7320476D01*
X7776190Y-7320476D01*
X7757143Y-7310952D01*
X7747619Y-7291905D01*
X7747619Y-7272857D01*
X7757143Y-7253809D01*
X7776190Y-7244286D01*
X7823809Y-7244286D01*
X7842857Y-7234762D01*
X7938095Y-7187143D02*
X7938095Y-7387143D01*
X7938095Y-7196667D02*
X7957143Y-7187143D01*
X7995238Y-7187143D01*
X8014286Y-7196667D01*
X8023809Y-7206190D01*
X8033333Y-7225238D01*
X8033333Y-7282381D01*
X8023809Y-7301428D01*
X8014286Y-7310952D01*
X7995238Y-7320476D01*
X7957143Y-7320476D01*
X7938095Y-7310952D01*
X8119048Y-7301428D02*
X8128571Y-7310952D01*
X8119048Y-7320476D01*
X8109524Y-7310952D01*
X8119048Y-7301428D01*
X8119048Y-7320476D01*
X8119048Y-7196667D02*
X8128571Y-7206190D01*
X8119048Y-7215714D01*
X8109524Y-7206190D01*
X8119048Y-7196667D01*
X8119048Y-7215714D01*
D11*
X6390000Y-7600000D02*
X6490000Y-7700000D01*
X6490000Y-7600000D02*
X6390000Y-7700000D01*
D10*
X6852381Y-7740476D02*
X6738095Y-7740476D01*
X6795238Y-7740476D02*
X6795238Y-7540476D01*
X6776190Y-7569048D01*
X6757143Y-7588095D01*
X6738095Y-7597619D01*
X6938095Y-7721428D02*
X6947619Y-7730952D01*
X6938095Y-7740476D01*
X6928571Y-7730952D01*
X6938095Y-7721428D01*
X6938095Y-7740476D01*
X7071428Y-7540476D02*
X7090476Y-7540476D01*
X7109524Y-7550000D01*
X7119048Y-7559524D01*
X7128571Y-7578571D01*
X7138095Y-7616667D01*
X7138095Y-7664286D01*
X7128571Y-7702381D01*
X7119048Y-7721428D01*
X7109524Y-7730952D01*
X7090476Y-7740476D01*
X7071428Y-7740476D01*
X7052381Y-7730952D01*
X7042857Y-7721428D01*
X7033333Y-7702381D01*
X7023809Y-7664286D01*
X7023809Y-7616667D01*
X7033333Y-7578571D01*
X7042857Y-7559524D01*
X7052381Y-7550000D01*
X7071428Y-7540476D01*
X7261905Y-7540476D02*
X7280952Y-7540476D01*
X7300000Y-7550000D01*
X7309524Y-7559524D01*
X7319048Y-7578571D01*
X7328571Y-7616667D01*
X7328571Y-7664286D01*
X7319048Y-7702381D01*
X7309524Y-7721428D01*
X7300000Y-7730952D01*
X7280952Y-7740476D01*
X7261905Y-7740476D01*
X7242857Y-7730952D01*
X7233333Y-7721428D01*
X7223809Y-7702381D01*
X7214286Y-7664286D01*
X7214286Y-7616667D01*
X7223809Y-7578571D01*
X7233333Y-7559524D01*
X7242857Y-7550000D01*
X7261905Y-7540476D01*
X7452381Y-7540476D02*
X7471428Y-7540476D01*
X7490476Y-7550000D01*
X7500000Y-7559524D01*
X7509524Y-7578571D01*
X7519048Y-7616667D01*
X7519048Y-7664286D01*
X7509524Y-7702381D01*
X7500000Y-7721428D01*
X7490476Y-7730952D01*
X7471428Y-7740476D01*
X7452381Y-7740476D01*
X7433333Y-7730952D01*
X7423809Y-7721428D01*
X7414286Y-7702381D01*
X7404762Y-7664286D01*
X7404762Y-7616667D01*
X7414286Y-7578571D01*
X7423809Y-7559524D01*
X7433333Y-7550000D01*
X7452381Y-7540476D01*
X7604762Y-7740476D02*
X7604762Y-7607143D01*
X7604762Y-7626190D02*
X7614286Y-7616667D01*
X7633333Y-7607143D01*
X7661905Y-7607143D01*
X7680952Y-7616667D01*
X7690476Y-7635714D01*
X7690476Y-7740476D01*
X7690476Y-7635714D02*
X7700000Y-7616667D01*
X7719048Y-7607143D01*
X7747619Y-7607143D01*
X7766667Y-7616667D01*
X7776190Y-7635714D01*
X7776190Y-7740476D01*
X7871428Y-7740476D02*
X7871428Y-7607143D01*
X7871428Y-7626190D02*
X7880952Y-7616667D01*
X7900000Y-7607143D01*
X7928571Y-7607143D01*
X7947619Y-7616667D01*
X7957143Y-7635714D01*
X7957143Y-7740476D01*
X7957143Y-7635714D02*
X7966667Y-7616667D01*
X7985714Y-7607143D01*
X8014286Y-7607143D01*
X8033333Y-7616667D01*
X8042857Y-7635714D01*
X8042857Y-7740476D01*
X8433333Y-7530952D02*
X8261905Y-7788095D01*
X8690476Y-7540476D02*
X8709524Y-7540476D01*
X8728571Y-7550000D01*
X8738095Y-7559524D01*
X8747619Y-7578571D01*
X8757143Y-7616667D01*
X8757143Y-7664286D01*
X8747619Y-7702381D01*
X8738095Y-7721428D01*
X8728571Y-7730952D01*
X8709524Y-7740476D01*
X8690476Y-7740476D01*
X8671429Y-7730952D01*
X8661905Y-7721428D01*
X8652381Y-7702381D01*
X8642857Y-7664286D01*
X8642857Y-7616667D01*
X8652381Y-7578571D01*
X8661905Y-7559524D01*
X8671429Y-7550000D01*
X8690476Y-7540476D01*
X8842857Y-7721428D02*
X8852381Y-7730952D01*
X8842857Y-7740476D01*
X8833333Y-7730952D01*
X8842857Y-7721428D01*
X8842857Y-7740476D01*
X8976190Y-7540476D02*
X8995238Y-7540476D01*
X9014286Y-7550000D01*
X9023810Y-7559524D01*
X9033333Y-7578571D01*
X9042857Y-7616667D01*
X9042857Y-7664286D01*
X9033333Y-7702381D01*
X9023810Y-7721428D01*
X9014286Y-7730952D01*
X8995238Y-7740476D01*
X8976190Y-7740476D01*
X8957143Y-7730952D01*
X8947619Y-7721428D01*
X8938095Y-7702381D01*
X8928571Y-7664286D01*
X8928571Y-7616667D01*
X8938095Y-7578571D01*
X8947619Y-7559524D01*
X8957143Y-7550000D01*
X8976190Y-7540476D01*
X9109524Y-7540476D02*
X9233333Y-7540476D01*
X9166667Y-7616667D01*
X9195238Y-7616667D01*
X9214286Y-7626190D01*
X9223810Y-7635714D01*
X9233333Y-7654762D01*
X9233333Y-7702381D01*
X9223810Y-7721428D01*
X9214286Y-7730952D01*
X9195238Y-7740476D01*
X9138095Y-7740476D01*
X9119048Y-7730952D01*
X9109524Y-7721428D01*
X9328571Y-7740476D02*
X9366667Y-7740476D01*
X9385714Y-7730952D01*
X9395238Y-7721428D01*
X9414286Y-7692857D01*
X9423810Y-7654762D01*
X9423810Y-7578571D01*
X9414286Y-7559524D01*
X9404762Y-7550000D01*
X9385714Y-7540476D01*
X9347619Y-7540476D01*
X9328571Y-7550000D01*
X9319048Y-7559524D01*
X9309524Y-7578571D01*
X9309524Y-7626190D01*
X9319048Y-7645238D01*
X9328571Y-7654762D01*
X9347619Y-7664286D01*
X9385714Y-7664286D01*
X9404762Y-7654762D01*
X9414286Y-7645238D01*
X9423810Y-7626190D01*
X9595238Y-7607143D02*
X9595238Y-7740476D01*
X9547619Y-7530952D02*
X9500000Y-7673809D01*
X9623810Y-7673809D01*
X9690476Y-7540476D02*
X9690476Y-7578571D01*
X9766667Y-7540476D02*
X9766667Y-7578571D01*
X10061905Y-7816667D02*
X10052381Y-7807143D01*
X10033333Y-7778571D01*
X10023810Y-7759524D01*
X10014286Y-7730952D01*
X10004762Y-7683333D01*
X10004762Y-7645238D01*
X10014286Y-7597619D01*
X10023810Y-7569048D01*
X10033333Y-7550000D01*
X10052381Y-7521428D01*
X10061905Y-7511905D01*
X10223810Y-7540476D02*
X10185714Y-7540476D01*
X10166667Y-7550000D01*
X10157143Y-7559524D01*
X10138095Y-7588095D01*
X10128571Y-7626190D01*
X10128571Y-7702381D01*
X10138095Y-7721428D01*
X10147619Y-7730952D01*
X10166667Y-7740476D01*
X10204762Y-7740476D01*
X10223810Y-7730952D01*
X10233333Y-7721428D01*
X10242857Y-7702381D01*
X10242857Y-7654762D01*
X10233333Y-7635714D01*
X10223810Y-7626190D01*
X10204762Y-7616667D01*
X10166667Y-7616667D01*
X10147619Y-7626190D01*
X10138095Y-7635714D01*
X10128571Y-7654762D01*
X10480952Y-7740476D02*
X10480952Y-7540476D01*
X10566667Y-7740476D02*
X10566667Y-7635714D01*
X10557143Y-7616667D01*
X10538095Y-7607143D01*
X10509524Y-7607143D01*
X10490476Y-7616667D01*
X10480952Y-7626190D01*
X10690476Y-7740476D02*
X10671429Y-7730952D01*
X10661905Y-7721428D01*
X10652381Y-7702381D01*
X10652381Y-7645238D01*
X10661905Y-7626190D01*
X10671429Y-7616667D01*
X10690476Y-7607143D01*
X10719048Y-7607143D01*
X10738095Y-7616667D01*
X10747619Y-7626190D01*
X10757143Y-7645238D01*
X10757143Y-7702381D01*
X10747619Y-7721428D01*
X10738095Y-7730952D01*
X10719048Y-7740476D01*
X10690476Y-7740476D01*
X10871429Y-7740476D02*
X10852381Y-7730952D01*
X10842857Y-7711905D01*
X10842857Y-7540476D01*
X11023810Y-7730952D02*
X11004762Y-7740476D01*
X10966667Y-7740476D01*
X10947619Y-7730952D01*
X10938095Y-7711905D01*
X10938095Y-7635714D01*
X10947619Y-7616667D01*
X10966667Y-7607143D01*
X11004762Y-7607143D01*
X11023810Y-7616667D01*
X11033333Y-7635714D01*
X11033333Y-7654762D01*
X10938095Y-7673809D01*
X11109524Y-7730952D02*
X11128571Y-7740476D01*
X11166667Y-7740476D01*
X11185714Y-7730952D01*
X11195238Y-7711905D01*
X11195238Y-7702381D01*
X11185714Y-7683333D01*
X11166667Y-7673809D01*
X11138095Y-7673809D01*
X11119048Y-7664286D01*
X11109524Y-7645238D01*
X11109524Y-7635714D01*
X11119048Y-7616667D01*
X11138095Y-7607143D01*
X11166667Y-7607143D01*
X11185714Y-7616667D01*
X11261905Y-7816667D02*
X11271428Y-7807143D01*
X11290476Y-7778571D01*
X11300000Y-7759524D01*
X11309524Y-7730952D01*
X11319048Y-7683333D01*
X11319048Y-7645238D01*
X11309524Y-7597619D01*
X11300000Y-7569048D01*
X11290476Y-7550000D01*
X11271428Y-7521428D01*
X11261905Y-7511905D01*
M02*
